<svg width="25" height="25" viewBox="0 0 25 25" fill="none" xmlns="http://www.w3.org/2000/svg">
<path fill-rule="evenodd" clip-rule="evenodd" d="M22.5 9.99997C22.5003 11.1714 22.2263 12.3267 21.6997 13.3732C21.1732 14.4196 20.4089 15.3282 19.4679 16.0261C18.527 16.7239 17.4357 17.1917 16.2815 17.3919C15.1273 17.592 13.9422 17.519 12.8212 17.1787L12.5 17.5L11.25 18.75L10 20H7.5V22.5H2.5V17.5L7.82125 12.1787C7.50931 11.1475 7.42321 10.0612 7.5688 8.99366C7.7144 7.92616 8.08828 6.90256 8.66499 5.99253C9.2417 5.0825 10.0077 4.3074 10.9109 3.72C11.814 3.13259 12.8331 2.74666 13.8989 2.58848C14.9646 2.4303 16.0518 2.50358 17.0867 2.80333C18.1215 3.10308 19.0796 3.62227 19.8958 4.32555C20.712 5.02884 21.367 5.89971 21.8164 6.8789C22.2658 7.85808 22.499 8.92259 22.5 9.99997ZM15 4.99997C14.6685 4.99997 14.3505 5.13167 14.1161 5.36609C13.8817 5.60051 13.75 5.91845 13.75 6.24997C13.75 6.58149 13.8817 6.89944 14.1161 7.13386C14.3505 7.36828 14.6685 7.49997 15 7.49997C15.663 7.49997 16.2989 7.76337 16.7678 8.23221C17.2366 8.70105 17.5 9.33693 17.5 9.99997C17.5 10.3315 17.6317 10.6494 17.8661 10.8839C18.1005 11.1183 18.4185 11.25 18.75 11.25C19.0815 11.25 19.3995 11.1183 19.6339 10.8839C19.8683 10.6494 20 10.3315 20 9.99997C20 8.67389 19.4732 7.40212 18.5355 6.46444C17.5979 5.52676 16.3261 4.99997 15 4.99997Z" fill="black"/>
</svg>
