<svg width="20" height="20" viewBox="0 0 20 20" fill="none" xmlns="http://www.w3.org/2000/svg">
<path fill-rule="evenodd" clip-rule="evenodd" d="M5.05002 4.05C6.36284 2.73718 8.14341 1.99964 10 1.99964C11.8566 1.99964 13.6372 2.73718 14.95 4.05C16.2628 5.36282 17.0004 7.14339 17.0004 9C17.0004 10.8566 16.2628 12.6372 14.95 13.95L10 18.9L5.05002 13.95C4.39993 13.3 3.88425 12.5283 3.53242 11.6789C3.1806 10.8296 2.99951 9.91931 2.99951 9C2.99951 8.08069 3.1806 7.17038 3.53242 6.32105C3.88425 5.47172 4.39993 4.70002 5.05002 4.05ZM10 11C10.5304 11 11.0392 10.7893 11.4142 10.4142C11.7893 10.0391 12 9.53043 12 9C12 8.46957 11.7893 7.96086 11.4142 7.58578C11.0392 7.21071 10.5304 7 10 7C9.46958 7 8.96088 7.21071 8.5858 7.58578C8.21073 7.96086 8.00002 8.46957 8.00002 9C8.00002 9.53043 8.21073 10.0391 8.5858 10.4142C8.96088 10.7893 9.46958 11 10 11Z" fill="black"/>
</svg>
