<svg xmlns="http://www.w3.org/2000/svg" viewBox="0 0 155 23" fill="white">
		<path d="M25.9349 9.74236C20.5737 6.10569 13.7095 4.37231 13.7095 4.37231C13.7095 4.37231 25.246 11.6574 24.5275 14.616C23.8091 17.5746 12.2812 19.1685 12.2812 19.1685C12.2812 19.1685 18.3648 19.8648 23.9354 19.6255C27.9657 19.4524 31.7956 18.4282 32.5331 18.0259C34.2902 17.0675 34.0643 16.7682 35.0753 16.3692C35.3066 16.278 36.4518 16.16 36.4518 16.16C36.4518 16.16 36.0729 15.9769 35.8342 15.8512C35.212 15.5234 34.9482 15.1729 34.2902 14.9248C33.4923 14.624 32.9006 14.9248 32.1286 14.616C31.3566 14.3072 28.482 11.4702 25.9349 9.74236Z"></path>
		<path d="M14.6398 6.66867L4.8616 8.39422C4.78729 8.40734 4.79688 8.51681 4.87233 8.51681H16.9513C17.0107 8.51681 17.0359 8.44125 16.9884 8.40564L14.6876 6.68006C14.6739 6.66981 14.6566 6.6657 14.6398 6.66867Z"></path>
		<path d="M17.9816 9.62737L11.4405 10.9071C11.3685 10.9212 11.3768 11.0268 11.4502 11.0295L19.4132 11.3139C19.4678 11.3158 19.4979 11.251 19.4611 11.2106L18.0391 9.64645C18.0246 9.63045 18.0028 9.62323 17.9816 9.62737Z"></path>
		<path d="M20.2394 12.4329L15.8111 13.2993C15.7624 13.3089 15.768 13.3804 15.8177 13.3821L21.2086 13.5747C21.2455 13.576 21.2659 13.5321 21.241 13.5047L20.2783 12.4458C20.2685 12.435 20.2537 12.4301 20.2394 12.4329Z"></path>
		<path d="M44.5291 14.4596V12.4861H46.2662C46.4317 12.4861 46.5893 12.5019 46.7389 12.5334C46.8966 12.557 47.0344 12.6043 47.1525 12.6752C47.2707 12.7461 47.3652 12.8446 47.4362 12.9706C47.5071 13.0966 47.5425 13.2582 47.5425 13.4551C47.5425 13.8096 47.4362 14.0656 47.2234 14.2232C47.0107 14.3808 46.7389 14.4596 46.4081 14.4596H44.5291ZM42.6738 11.0444V19.4819H46.7626C47.1407 19.4819 47.5071 19.4346 47.8616 19.3401C48.2239 19.2455 48.5429 19.0998 48.8188 18.9028C49.1024 18.7059 49.3269 18.4538 49.4923 18.1465C49.6578 17.8314 49.7405 17.4611 49.7405 17.0357C49.7405 16.5079 49.6105 16.0588 49.3505 15.6885C49.0984 15.3104 48.7124 15.0465 48.1925 14.8968C48.5706 14.7156 48.8542 14.4832 49.0433 14.1996C49.2402 13.916 49.3387 13.5615 49.3387 13.136C49.3387 12.7421 49.2718 12.4112 49.1378 12.1434C49.0119 11.8755 48.8306 11.6628 48.5942 11.5053C48.3579 11.3398 48.0743 11.2217 47.7434 11.1508C47.4125 11.0798 47.0462 11.0444 46.6444 11.0444H42.6738ZM44.5291 18.0402V15.724H46.5499C46.9516 15.724 47.2747 15.8185 47.5189 16.0076C47.763 16.1888 47.8852 16.4961 47.8852 16.9294C47.8852 17.1499 47.8457 17.3311 47.767 17.4729C47.6961 17.6147 47.5976 17.729 47.4716 17.8156C47.3456 17.8944 47.1998 17.9535 47.0344 17.9929C46.8689 18.0244 46.6957 18.0402 46.5144 18.0402H44.5291ZM50.9943 11.0444V19.4819H52.8496V11.0444H50.9943ZM60.5771 18.5247L60.7662 19.4819H61.9479V14.9204H58.4027V16.303H60.2698C60.2148 16.8939 60.0179 17.3469 59.679 17.662C59.3481 17.9693 58.8754 18.1229 58.2609 18.1229C57.8435 18.1229 57.489 18.0441 57.1974 17.8865C56.906 17.7211 56.6696 17.5044 56.4883 17.2366C56.3073 16.9687 56.1733 16.6694 56.0866 16.3385C56.0079 15.9997 55.9684 15.6531 55.9684 15.2986C55.9684 14.9283 56.0079 14.5699 56.0866 14.2232C56.1733 13.8766 56.3073 13.5693 56.4883 13.3015C56.6696 13.0257 56.906 12.8091 57.1974 12.6515C57.489 12.4861 57.8435 12.4034 58.2609 12.4034C58.71 12.4034 59.0921 12.5215 59.4072 12.7579C59.7225 12.9942 59.9352 13.3487 60.0453 13.8214H61.8179C61.7706 13.3409 61.6406 12.9155 61.4279 12.5452C61.2152 12.1749 60.9434 11.8637 60.6125 11.6116C60.2897 11.3595 59.9234 11.1704 59.5135 11.0444C59.1118 10.9105 58.6944 10.8435 58.2609 10.8435C57.615 10.8435 57.0319 10.9577 56.512 11.1862C56.0001 11.4147 55.5666 11.7298 55.2121 12.1316C54.8576 12.5334 54.5858 13.006 54.3967 13.5496C54.2076 14.0854 54.1131 14.6683 54.1131 15.2986C54.1131 15.9131 54.2076 16.4882 54.3967 17.0239C54.5858 17.5517 54.8576 18.0126 55.2121 18.4065C55.5666 18.8004 56.0001 19.1116 56.512 19.3401C57.0319 19.5606 57.615 19.6709 58.2609 19.6709C58.6707 19.6709 59.0763 19.5882 59.4781 19.4228C59.8799 19.2495 60.2462 18.9501 60.5771 18.5247ZM68.6024 12.6043V19.4819H70.4577V12.6043H72.9865V11.0444H66.0735V12.6043H68.6024ZM75.8146 14.8613V12.4861H77.8472C78.2726 12.4861 78.5917 12.5806 78.8044 12.7697C79.0171 12.9509 79.1234 13.2463 79.1234 13.656C79.1234 14.0814 79.0171 14.3887 78.8044 14.5777C78.5917 14.7668 78.2726 14.8613 77.8472 14.8613H75.8146ZM73.9593 11.0444V19.4819H75.8146V16.1849H77.6699C78.1348 16.1849 78.4695 16.2873 78.6744 16.4921C78.8793 16.697 79.0131 17.0199 79.0762 17.4611C79.1234 17.7999 79.1589 18.1544 79.1825 18.5247C79.2062 18.8949 79.2693 19.214 79.3716 19.4819H81.2269C81.1402 19.3637 81.0733 19.2219 81.026 19.0564C80.9865 18.8831 80.9551 18.7019 80.9315 18.5129C80.9156 18.3238 80.9038 18.1386 80.896 17.9574C80.8882 17.7762 80.8802 17.6187 80.8724 17.4848C80.8565 17.272 80.8251 17.0593 80.7778 16.8466C80.7384 16.6339 80.6715 16.4409 80.577 16.2676C80.4824 16.0864 80.3602 15.9328 80.2106 15.8067C80.061 15.6728 79.8719 15.5743 79.6434 15.5113V15.4877C80.1161 15.2986 80.4548 15.0228 80.6597 14.6605C80.8724 14.2981 80.9787 13.8687 80.9787 13.3724C80.9787 13.0494 80.9197 12.75 80.8015 12.4743C80.6911 12.1907 80.5257 11.9425 80.3052 11.7298C80.0925 11.5171 79.8325 11.3516 79.5252 11.2335C79.2258 11.1074 78.8871 11.0444 78.5089 11.0444H73.9593ZM84.6146 16.2203L85.7136 13.1242H85.7373L86.8008 16.2203H84.6146ZM84.7919 11.0444L81.6013 19.4819H83.4684L84.1301 17.6029H87.2853L87.9235 19.4819H89.8497L86.6945 11.0444H84.7919ZM90.5774 11.0444V19.4819H92.3145V13.8333H92.3381L95.8478 19.4819H97.7031V11.0444H95.966V16.7048H95.9424L92.4208 11.0444H90.5774ZM100.601 16.6812H98.8045C98.7967 17.2011 98.8912 17.6502 99.0881 18.0283C99.285 18.4065 99.549 18.7177 99.8798 18.9619C100.219 19.2061 100.605 19.3834 101.038 19.4937C101.479 19.6118 101.932 19.6709 102.397 19.6709C102.972 19.6709 103.476 19.604 103.91 19.47C104.351 19.3361 104.717 19.151 105.009 18.9146C105.308 18.6704 105.532 18.3829 105.682 18.052C105.832 17.7211 105.907 17.3626 105.907 16.9766C105.907 16.5039 105.804 16.1179 105.599 15.8185C105.402 15.5113 105.166 15.2671 104.89 15.0859C104.615 14.9047 104.335 14.7747 104.051 14.6959C103.775 14.6092 103.559 14.5502 103.401 14.5186C102.874 14.3847 102.444 14.2744 102.113 14.1878C101.79 14.1011 101.534 14.0145 101.345 13.9278C101.164 13.8411 101.042 13.7466 100.979 13.6442C100.916 13.5418 100.884 13.4078 100.884 13.2424C100.884 13.0612 100.924 12.9115 101.002 12.7933C101.081 12.6752 101.18 12.5767 101.298 12.4979C101.424 12.4191 101.562 12.364 101.712 12.3325C101.861 12.301 102.011 12.2852 102.161 12.2852C102.389 12.2852 102.598 12.3049 102.787 12.3443C102.984 12.3837 103.157 12.4506 103.307 12.5452C103.456 12.6397 103.575 12.7697 103.661 12.9351C103.756 13.1006 103.811 13.3093 103.827 13.5615H105.623C105.623 13.073 105.528 12.6594 105.339 12.3207C105.158 11.974 104.91 11.6904 104.595 11.4698C104.28 11.2492 103.917 11.0917 103.508 10.9971C103.106 10.8947 102.685 10.8435 102.243 10.8435C101.865 10.8435 101.487 10.8947 101.109 10.9971C100.731 11.0995 100.392 11.2571 100.093 11.4698C99.7931 11.6825 99.549 11.9504 99.3599 12.2734C99.1786 12.5885 99.0881 12.9627 99.0881 13.396C99.0881 13.782 99.159 14.1129 99.3008 14.3887C99.4504 14.6565 99.6435 14.881 99.8798 15.0622C100.116 15.2434 100.384 15.3931 100.683 15.5113C100.983 15.6216 101.29 15.7161 101.605 15.7949C101.912 15.8816 102.216 15.9603 102.515 16.0312C102.815 16.1021 103.082 16.1849 103.319 16.2794C103.555 16.3739 103.744 16.4921 103.886 16.6339C104.035 16.7757 104.11 16.9609 104.11 17.1893C104.11 17.402 104.055 17.5793 103.945 17.7211C103.835 17.855 103.697 17.9614 103.531 18.0402C103.366 18.1189 103.189 18.1741 103 18.2056C102.811 18.2292 102.633 18.2411 102.468 18.2411C102.224 18.2411 101.987 18.2135 101.759 18.1583C101.53 18.0953 101.329 18.0047 101.156 17.8865C100.991 17.7605 100.857 17.599 100.754 17.402C100.652 17.2051 100.601 16.9648 100.601 16.6812ZM116.397 18.5247L116.586 19.4819H117.768V14.9204H114.223V16.303H116.09C116.035 16.8939 115.838 17.3469 115.499 17.662C115.168 17.9693 114.696 18.1229 114.081 18.1229C113.663 18.1229 113.309 18.0441 113.017 17.8865C112.726 17.7211 112.489 17.5044 112.308 17.2366C112.127 16.9687 111.993 16.6694 111.907 16.3385C111.828 15.9997 111.788 15.6531 111.788 15.2986C111.788 14.9283 111.828 14.5699 111.907 14.2232C111.993 13.8766 112.127 13.5693 112.308 13.3015C112.489 13.0257 112.726 12.8091 113.017 12.6515C113.309 12.4861 113.663 12.4034 114.081 12.4034C114.53 12.4034 114.912 12.5215 115.227 12.7579C115.542 12.9942 115.755 13.3487 115.865 13.8214H117.638C117.591 13.3409 117.461 12.9155 117.248 12.5452C117.035 12.1749 116.764 11.8637 116.433 11.6116C116.11 11.3595 115.743 11.1704 115.334 11.0444C114.932 10.9105 114.514 10.8435 114.081 10.8435C113.435 10.8435 112.852 10.9577 112.332 11.1862C111.82 11.4147 111.387 11.7298 111.032 12.1316C110.678 12.5334 110.406 13.006 110.217 13.5496C110.028 14.0854 109.933 14.6683 109.933 15.2986C109.933 15.9131 110.028 16.4882 110.217 17.0239C110.406 17.5517 110.678 18.0126 111.032 18.4065C111.387 18.8004 111.82 19.1116 112.332 19.3401C112.852 19.5606 113.435 19.6709 114.081 19.6709C114.491 19.6709 114.896 19.5882 115.298 19.4228C115.7 19.2495 116.066 18.9501 116.397 18.5247ZM121.121 14.8613V12.4861H123.154C123.579 12.4861 123.898 12.5806 124.111 12.7697C124.324 12.9509 124.43 13.2463 124.43 13.656C124.43 14.0814 124.324 14.3887 124.111 14.5777C123.898 14.7668 123.579 14.8613 123.154 14.8613H121.121ZM119.266 11.0444V19.4819H121.121V16.1849H122.977C123.442 16.1849 123.777 16.2873 123.981 16.4921C124.186 16.697 124.32 17.0199 124.383 17.4611C124.43 17.7999 124.466 18.1544 124.489 18.5247C124.513 18.8949 124.576 19.214 124.678 19.4819H126.534C126.447 19.3637 126.38 19.2219 126.333 19.0564C126.294 18.8831 126.262 18.7019 126.238 18.5129C126.223 18.3238 126.211 18.1386 126.203 17.9574C126.195 17.7762 126.187 17.6187 126.179 17.4848C126.164 17.272 126.132 17.0593 126.085 16.8466C126.045 16.6339 125.978 16.4409 125.884 16.2676C125.789 16.0864 125.667 15.9328 125.517 15.8067C125.368 15.6728 125.179 15.5743 124.95 15.5113V15.4877C125.423 15.2986 125.762 15.0228 125.966 14.6605C126.179 14.2981 126.286 13.8687 126.286 13.3724C126.286 13.0494 126.226 12.75 126.108 12.4743C125.998 12.1907 125.833 11.9425 125.612 11.7298C125.399 11.5171 125.139 11.3516 124.832 11.2335C124.533 11.1074 124.194 11.0444 123.816 11.0444H119.266ZM129.283 15.2986C129.283 14.9283 129.323 14.5699 129.402 14.2232C129.488 13.8766 129.622 13.5693 129.803 13.3015C129.985 13.0257 130.221 12.8091 130.512 12.6515C130.804 12.4861 131.158 12.4034 131.576 12.4034C131.993 12.4034 132.348 12.4861 132.639 12.6515C132.931 12.8091 133.167 13.0257 133.348 13.3015C133.53 13.5693 133.66 13.8766 133.738 14.2232C133.825 14.5699 133.868 14.9283 133.868 15.2986C133.868 15.6531 133.825 15.9997 133.738 16.3385C133.66 16.6694 133.53 16.9687 133.348 17.2366C133.167 17.5044 132.931 17.7211 132.639 17.8865C132.348 18.0441 131.993 18.1229 131.576 18.1229C131.158 18.1229 130.804 18.0441 130.512 17.8865C130.221 17.7211 129.985 17.5044 129.803 17.2366C129.622 16.9687 129.488 16.6694 129.402 16.3385C129.323 15.9997 129.283 15.6531 129.283 15.2986ZM127.428 15.2986C127.428 15.9131 127.523 16.4882 127.712 17.0239C127.901 17.5517 128.173 18.0126 128.527 18.4065C128.882 18.8004 129.315 19.1116 129.827 19.3401C130.347 19.5606 130.93 19.6709 131.576 19.6709C132.23 19.6709 132.813 19.5606 133.325 19.3401C133.837 19.1116 134.27 18.8004 134.625 18.4065C134.979 18.0126 135.251 17.5517 135.44 17.0239C135.629 16.4882 135.724 15.9131 135.724 15.2986C135.724 14.6683 135.629 14.0854 135.44 13.5496C135.251 13.006 134.979 12.5334 134.625 12.1316C134.27 11.7298 133.837 11.4147 133.325 11.1862C132.813 10.9577 132.23 10.8435 131.576 10.8435C130.93 10.8435 130.347 10.9577 129.827 11.1862C129.315 11.4147 128.882 11.7298 128.527 12.1316C128.173 12.5334 127.901 13.006 127.712 13.5496C127.523 14.0854 127.428 14.6683 127.428 15.2986ZM144.153 16.2912V11.0444H142.298V16.2912C142.298 16.9215 142.172 17.3863 141.92 17.6857C141.668 17.9771 141.211 18.1229 140.549 18.1229C140.171 18.1229 139.868 18.0717 139.639 17.9693C139.418 17.859 139.245 17.7211 139.119 17.5557C138.993 17.3823 138.91 17.1854 138.871 16.9648C138.832 16.7442 138.812 16.5197 138.812 16.2912V11.0444H136.956V16.2912C136.956 17.4414 137.268 18.2923 137.89 18.8437C138.52 19.3952 139.407 19.6709 140.549 19.6709C141.676 19.6709 142.558 19.3952 143.196 18.8437C143.834 18.2844 144.153 17.4335 144.153 16.2912ZM147.606 15.015V12.4861H149.048C149.261 12.4861 149.465 12.5019 149.663 12.5334C149.859 12.5649 150.033 12.6279 150.182 12.7224C150.332 12.8091 150.45 12.9351 150.537 13.1006C150.632 13.266 150.679 13.4827 150.679 13.7505C150.679 14.0184 150.632 14.235 150.537 14.4005C150.45 14.5659 150.332 14.6959 150.182 14.7904C150.033 14.8771 149.859 14.9362 149.663 14.9677C149.465 14.9992 149.261 15.015 149.048 15.015H147.606ZM145.751 11.0444V19.4819H147.606V16.4567H149.556C150.084 16.4567 150.533 16.3818 150.903 16.2321C151.273 16.0746 151.573 15.8698 151.801 15.6176C152.038 15.3655 152.207 15.078 152.31 14.755C152.42 14.4241 152.475 14.0893 152.475 13.7505C152.475 13.4039 152.42 13.0691 152.31 12.7461C152.207 12.4231 152.038 12.1355 151.801 11.8834C151.573 11.6313 151.273 11.4304 150.903 11.2807C150.533 11.1232 150.084 11.0444 149.556 11.0444H145.751Z"></path>
	</svg>