<svg width="25" height="25" viewBox="0 0 25 25" fill="none" xmlns="http://www.w3.org/2000/svg">
<path d="M2.50378 7.355L12.5 12.3525L22.4963 7.355C22.4593 6.71805 22.1801 6.11936 21.7161 5.68153C21.252 5.24371 20.6381 4.99988 20 5H5.00003C4.36202 4.99988 3.74809 5.24371 3.28401 5.68153C2.81992 6.11936 2.54079 6.71805 2.50378 7.355Z" fill="white"/>
<path d="M22.5 10.1475L12.5 15.1475L2.5 10.1475V17.5C2.5 18.1631 2.76339 18.7989 3.23223 19.2678C3.70107 19.7366 4.33696 20 5 20H20C20.663 20 21.2989 19.7366 21.7678 19.2678C22.2366 18.7989 22.5 18.1631 22.5 17.5V10.1475Z" fill="white"/>
</svg>
